<svg width="47" height="46" viewBox="0 0 47 46" fill="none" xmlns="http://www.w3.org/2000/svg">
<path d="M36.5 0H10.5C4.97715 0 0.5 4.47715 0.5 10V36C0.5 41.5228 4.97715 46 10.5 46H36.5C42.0228 46 46.5 41.5228 46.5 36V10C46.5 4.47715 42.0228 0 36.5 0Z" fill="#F7C56B"/>
<path d="M26.5996 13.0273H20.4068C14.8707 13.0273 10.3828 17.5152 10.3828 23.0513C10.3828 26.6889 12.3204 29.874 15.2199 31.6307C15.665 31.9004 15.9983 32.3449 15.9983 32.8654C15.9983 34.2909 14.5673 36.5998 13.559 38.0498C13.3107 38.4068 13.6888 38.876 14.0762 38.6787C15.4793 37.9642 16.8008 37.1198 17.9822 36.2198C20.3143 34.4433 23.0458 33.0753 25.9775 33.0753H26.5996C32.1357 33.0753 36.6237 28.5875 36.6237 23.0513C36.6237 17.5152 32.1357 13.0273 26.5996 13.0273Z" fill="white"/>
<path d="M17.6248 24.4683C18.4363 24.4683 19.0942 23.8104 19.0942 22.9988C19.0942 22.1872 18.4363 21.5293 17.6248 21.5293C16.8132 21.5293 16.1553 22.1872 16.1553 22.9988C16.1553 23.8104 16.8132 24.4683 17.6248 24.4683Z" fill="#854C3A"/>
<path d="M23.6086 24.4683C24.4202 24.4683 25.0781 23.8104 25.0781 22.9988C25.0781 22.1872 24.4202 21.5293 23.6086 21.5293C22.7971 21.5293 22.1392 22.1872 22.1392 22.9988C22.1392 23.8104 22.7971 24.4683 23.6086 24.4683Z" fill="#854C3A"/>
<path d="M29.5908 24.4683C30.4024 24.4683 31.0603 23.8104 31.0603 22.9988C31.0603 22.1872 30.4024 21.5293 29.5908 21.5293C28.7792 21.5293 28.1213 22.1872 28.1213 22.9988C28.1213 23.8104 28.7792 24.4683 29.5908 24.4683Z" fill="#854C3A"/>
</svg>
